<?xml version="1.0" standalone="no"?>
<!DOCTYPE svg PUBLIC "-//W3C//DTD SVG 20010904//EN"
 "http://www.w3.org/TR/2001/REC-SVG-20010904/DTD/svg10.dtd">
<svg version="1.0" xmlns="http://www.w3.org/2000/svg"
 width="1276.000000pt" height="1276.000000pt" viewBox="0 0 1276.000000 1276.000000"
 preserveAspectRatio="xMidYMid meet">
<metadata>
Created by potrace 1.11, written by Peter Selinger 2001-2013
</metadata>
<g transform="translate(0.000000,1276.000000) scale(0.100000,-0.100000)"
fill="#000000" stroke="none">
<path d="M2855 10046 l-896 -1194 -827 0 c-733 0 -832 -2 -872 -17 -108 -38
-176 -99 -226 -201 -23 -48 -29 -74 -31 -136 -4 -168 70 -293 217 -362 l65
-31 465 -3 c256 -1 504 -3 553 -5 l87 -2 -67 -90 -68 -90 -270 0 c-347 1 -400
-10 -500 -110 -179 -180 -131 -485 94 -599 72 -37 84 -38 344 -41 131 -1 239
-4 240 -6 2 -2 38 -43 81 -91 43 -49 75 -88 70 -89 -5 0 -65 -2 -134 -3 -69
-1 -138 -6 -155 -11 -100 -27 -188 -102 -238 -204 -29 -61 -32 -73 -31 -161 0
-81 4 -104 27 -153 45 -99 166 -196 267 -214 14 -3 238 -5 499 -6 l473 -2 60
-65 c33 -36 81 -87 106 -115 25 -27 73 -79 106 -115 54 -58 226 -244 300 -325
134 -145 215 -233 236 -255 14 -14 48 -51 75 -81 28 -30 102 -111 166 -179
128 -138 136 -146 252 -273 44 -48 96 -105 116 -126 20 -21 79 -85 131 -142
52 -56 106 -115 120 -129 14 -15 68 -73 120 -130 52 -57 104 -113 115 -125 11
-11 94 -101 185 -200 91 -98 172 -186 180 -195 8 -9 58 -62 110 -119 52 -57
109 -118 125 -135 32 -35 204 -221 244 -265 13 -14 72 -78 130 -140 58 -63
133 -144 167 -180 33 -37 94 -102 134 -146 41 -44 79 -85 85 -91 5 -6 51 -55
100 -109 50 -54 104 -113 120 -131 17 -17 73 -78 125 -134 52 -57 104 -113
115 -124 11 -12 65 -71 120 -131 55 -60 114 -123 130 -141 17 -17 73 -78 125
-135 52 -57 123 -133 157 -169 33 -36 70 -76 81 -90 l19 -24 38 39 c36 39 185
200 240 260 15 17 76 81 134 144 58 63 114 123 124 135 10 12 64 70 120 131
159 171 193 208 223 240 15 17 75 82 134 145 59 63 119 129 135 145 58 64 191
209 220 239 45 49 209 227 236 257 13 15 71 77 129 139 58 62 116 124 129 139
13 14 69 75 125 135 55 61 132 144 171 185 38 42 87 96 110 119 22 24 54 58
70 76 37 40 246 267 260 282 6 6 58 62 116 125 58 63 119 128 134 144 25 27
164 179 225 245 179 194 351 380 389 420 30 32 181 197 206 225 6 6 39 42 75
80 142 152 296 319 313 339 19 22 176 191 259 280 l48 51 477 0 c501 1 506 2
596 47 58 29 133 109 164 174 24 52 28 71 28 154 0 87 -3 101 -32 161 -42 84
-97 140 -179 180 -64 32 -71 33 -207 36 -77 1 -141 4 -143 5 -1 2 34 43 79 92
l82 89 240 2 c219 1 245 3 294 23 128 51 212 148 239 277 41 201 -90 400 -293
442 -22 5 -161 9 -310 8 l-270 0 -67 90 c-36 50 -65 91 -64 92 1 2 240 3 531
3 571 1 592 2 675 55 122 78 181 192 177 339 -3 67 -9 94 -32 141 -49 101
-130 170 -238 205 -28 9 -247 12 -861 12 l-824 0 -162 217 c-88 119 -168 224
-176 234 -8 10 -339 450 -734 978 l-720 959 -2630 0 -2629 0 -896 -1194z"/>
</g>
</svg>
