<?xml version="1.0" standalone="no"?>
<!DOCTYPE svg PUBLIC "-//W3C//DTD SVG 20010904//EN"
 "http://www.w3.org/TR/2001/REC-SVG-20010904/DTD/svg10.dtd">
<svg version="1.0" xmlns="http://www.w3.org/2000/svg"
 width="319.000000pt" height="319.000000pt" viewBox="0 0 319.000000 319.000000"
 preserveAspectRatio="xMidYMid meet">
<metadata>
Created by potrace 1.11, written by Peter Selinger 2001-2013
</metadata>
<g transform="translate(0.000000,319.000000) scale(0.100000,-0.100000)"
fill="#000000" stroke="none">
<path d="M854 2693 c-48 -65 -92 -122 -96 -128 -5 -5 -66 -86 -136 -180 l-128
-170 -205 -2 c-115 -1 -216 -6 -232 -12 -37 -14 -63 -69 -50 -107 19 -58 50
-69 196 -70 73 -1 136 -2 141 -3 5 0 1 -10 -9 -21 -15 -17 -31 -20 -96 -20
-68 0 -81 -3 -107 -25 -37 -31 -45 -75 -20 -115 22 -37 46 -47 118 -49 50 -1
109 -25 96 -38 -3 -3 -18 -6 -33 -8 -48 -4 -68 -14 -86 -44 -25 -43 -21 -78
12 -112 32 -32 29 -31 182 -30 l107 0 42 -47 c24 -26 95 -103 159 -172 64 -68
147 -158 186 -200 38 -41 88 -95 111 -120 23 -25 55 -58 70 -75 27 -31 208
-227 254 -276 26 -28 197 -213 240 -259 l25 -27 29 31 c29 32 201 218 246 266
50 53 218 236 246 266 39 42 210 227 254 274 19 21 73 79 120 130 47 51 110
119 142 152 l56 59 59 -2 c32 -1 89 -1 126 0 64 1 71 3 98 32 61 65 19 150
-75 153 -42 1 -42 1 -18 25 13 14 36 20 91 23 65 3 76 7 97 31 36 42 33 98 -7
131 -27 23 -39 26 -108 26 -47 0 -82 5 -89 12 -29 29 -11 33 119 32 117 -1
134 1 162 20 39 27 53 67 36 107 -23 57 -37 61 -270 62 l-212 2 -50 65 c-27
36 -60 79 -73 95 -23 31 -173 230 -209 279 -11 15 -42 56 -69 92 l-49 64 -652
0 -653 0 -88 -117z"/>
</g>
</svg>
